<svg width="11" height="7" viewBox="0 0 11 7" fill="none" xmlns="http://www.w3.org/2000/svg">
<path d="M6.3125 6.79687C6.1875 6.67187 6.1275 6.52083 6.1325 6.34375C6.1375 6.16667 6.20271 6.01562 6.32813 5.89062L8.09375 4.125H1.125C0.947919 4.125 0.799377 4.065 0.679377 3.945C0.559377 3.825 0.499585 3.67667 0.500002 3.5C0.500002 3.32292 0.560002 3.17437 0.680002 3.05437C0.800002 2.93437 0.948335 2.87458 1.125 2.875H8.09375L6.3125 1.09375C6.1875 0.96875 6.125 0.820208 6.125 0.648125C6.125 0.476041 6.1875 0.327708 6.3125 0.203125C6.4375 0.0781248 6.58604 0.015625 6.75813 0.015625C6.93021 0.015625 7.07854 0.0781248 7.20313 0.203125L10.0625 3.0625C10.125 3.125 10.1694 3.19271 10.1956 3.26562C10.2219 3.33854 10.2348 3.41667 10.2344 3.5C10.2344 3.58333 10.2213 3.66146 10.195 3.73438C10.1688 3.80729 10.1246 3.875 10.0625 3.9375L7.1875 6.8125C7.07292 6.92708 6.92979 6.98438 6.75813 6.98438C6.58646 6.98438 6.43792 6.92187 6.3125 6.79687Z" fill="#6E9944"/>
</svg>
